<svg version="1.1" viewBox="0.0 0.0 575.3202099737533 640.8503937007874" fill="none" stroke="none" stroke-linecap="square" stroke-miterlimit="10" xmlns:xlink="http://www.w3.org/1999/xlink" xmlns="http://www.w3.org/2000/svg"><clipPath id="p.0"><path d="m0 0l575.3202 0l0 640.8504l-575.3202 0l0 -640.8504z" clip-rule="nonzero"/></clipPath><g clip-path="url(#p.0)"><path fill="#000000" fill-opacity="0.0" d="m0 0l575.3202 0l0 640.8504l-575.3202 0z" fill-rule="evenodd"/><path fill="#434343" d="m213.60367 16.0l144.69293 0l0 54.48819l-144.69293 0z" fill-rule="evenodd"/><path stroke="#6aa84f" stroke-width="8.0" stroke-linejoin="round" stroke-linecap="butt" d="m213.60367 16.0l144.69293 0l0 54.48819l-144.69293 0z" fill-rule="evenodd"/><path fill="#ffffff" d="m243.37503 45.36472l2.03125 0.515625q-0.640625 2.484375 -2.296875 3.796875q-1.640625 1.3125 -4.03125 1.3125q-2.46875 0 -4.015625 -1.0q-1.546875 -1.015625 -2.359375 -2.921875q-0.796875 -1.90625 -0.796875 -4.09375q0 -2.390625 0.90625 -4.15625q0.921875 -1.78125 2.59375 -2.703125q1.6875 -0.921875 3.703125 -0.921875q2.296875 0 3.859375 1.171875q1.5625 1.171875 2.171875 3.28125l-1.984375 0.46875q-0.53125 -1.671875 -1.546875 -2.421875q-1.0 -0.765625 -2.53125 -0.765625q-1.765625 0 -2.953125 0.84375q-1.171875 0.84375 -1.65625 2.265625q-0.484375 1.421875 -0.484375 2.921875q0 1.953125 0.5625 3.40625q0.578125 1.453125 1.765625 2.171875q1.203125 0.71875 2.609375 0.71875q1.6875 0 2.859375 -0.96875q1.1875 -0.984375 1.59375 -2.921875zm11.496246 4.0q-1.046875 0.875 -2.015625 1.25q-0.953125 0.359375 -2.0625 0.359375q-1.8125 0 -2.796875 -0.890625q-0.984375 -0.890625 -0.984375 -2.28125q0 -0.8125 0.375 -1.484375q0.375 -0.671875 0.96875 -1.078125q0.59375 -0.40625 1.34375 -0.609375q0.5625 -0.140625 1.671875 -0.28125q2.265625 -0.265625 3.34375 -0.640625q0.015625 -0.390625 0.015625 -0.5q0 -1.140625 -0.53125 -1.609375q-0.71875 -0.640625 -2.140625 -0.640625q-1.328125 0 -1.953125 0.46875q-0.625 0.46875 -0.9375 1.640625l-1.828125 -0.25q0.25 -1.171875 0.8125 -1.890625q0.578125 -0.734375 1.65625 -1.125q1.09375 -0.390625 2.515625 -0.390625q1.421875 0 2.296875 0.34375q0.890625 0.328125 1.3125 0.828125q0.421875 0.5 0.578125 1.28125q0.09375 0.46875 0.09375 1.71875l0 2.5q0 2.625 0.125 3.3125q0.125 0.6875 0.46875 1.328125l-1.953125 0q-0.296875 -0.578125 -0.375 -1.359375zm-0.15625 -4.1875q-1.015625 0.40625 -3.0625 0.703125q-1.15625 0.171875 -1.640625 0.375q-0.46875 0.203125 -0.734375 0.609375q-0.265625 0.40625 -0.265625 0.890625q0 0.75 0.5625 1.25q0.578125 0.5 1.671875 0.5q1.078125 0 1.921875 -0.46875q0.84375 -0.484375 1.25 -1.296875q0.296875 -0.640625 0.296875 -1.875l0 -0.6875zm4.7991943 5.546875l0 -11.0625l1.671875 0l0 1.546875q0.53125 -0.8125 1.390625 -1.296875q0.859375 -0.5 1.96875 -0.5q1.234375 0 2.015625 0.515625q0.78125 0.5 1.109375 1.421875q1.3125 -1.9375 3.40625 -1.9375q1.65625 0 2.53125 0.921875q0.890625 0.90625 0.890625 2.796875l0 7.59375l-1.859375 0l0 -6.96875q0 -1.125 -0.1875 -1.609375q-0.1875 -0.5 -0.671875 -0.796875q-0.46875 -0.3125 -1.109375 -0.3125q-1.171875 0 -1.9375 0.78125q-0.765625 0.765625 -0.765625 2.484375l0 6.421875l-1.875 0l0 -7.1875q0 -1.25 -0.46875 -1.875q-0.453125 -0.625 -1.5 -0.625q-0.78125 0 -1.453125 0.421875q-0.671875 0.40625 -0.984375 1.21875q-0.296875 0.796875 -0.296875 2.3125l0 5.734375l-1.875 0zm17.01648 -3.296875l1.859375 -0.296875q0.15625 1.109375 0.859375 1.703125q0.71875 0.59375 2.0 0.59375q1.296875 0 1.921875 -0.515625q0.625 -0.53125 0.625 -1.234375q0 -0.640625 -0.5625 -1.0q-0.375 -0.25 -1.90625 -0.640625q-2.0625 -0.515625 -2.859375 -0.890625q-0.796875 -0.390625 -1.21875 -1.0625q-0.40625 -0.671875 -0.40625 -1.484375q0 -0.734375 0.328125 -1.359375q0.34375 -0.640625 0.9375 -1.0625q0.4375 -0.3125 1.1875 -0.53125q0.75 -0.234375 1.625 -0.234375q1.296875 0 2.28125 0.375q0.984375 0.375 1.453125 1.015625q0.46875 0.640625 0.640625 1.71875l-1.828125 0.25q-0.125 -0.859375 -0.734375 -1.328125q-0.59375 -0.484375 -1.6875 -0.484375q-1.28125 0 -1.84375 0.421875q-0.546875 0.421875 -0.546875 1.0q0 0.359375 0.234375 0.65625q0.21875 0.296875 0.71875 0.5q0.28125 0.109375 1.65625 0.484375q1.984375 0.53125 2.765625 0.875q0.796875 0.328125 1.234375 0.984375q0.453125 0.640625 0.453125 1.59375q0 0.9375 -0.546875 1.765625q-0.546875 0.828125 -1.578125 1.28125q-1.03125 0.453125 -2.328125 0.453125q-2.15625 0 -3.296875 -0.890625q-1.125 -0.90625 -1.4375 -2.65625zm15.5078125 1.625l0.265625 1.65625q-0.78125 0.15625 -1.40625 0.15625q-1.03125 0 -1.59375 -0.3125q-0.5625 -0.328125 -0.796875 -0.84375q-0.21875 -0.53125 -0.21875 -2.21875l0 -6.375l-1.375 0l0 -1.453125l1.375 0l0 -2.734375l1.859375 -1.125l0 3.859375l1.890625 0l0 1.453125l-1.890625 0l0 6.46875q0 0.8125 0.09375 1.046875q0.109375 0.21875 0.328125 0.359375q0.234375 0.125 0.640625 0.125q0.3125 0 0.828125 -0.0625zm1.8162842 1.671875l0 -11.0625l1.6875 0l0 1.671875q0.640625 -1.171875 1.1875 -1.546875q0.546875 -0.375 1.203125 -0.375q0.953125 0 1.921875 0.609375l-0.640625 1.734375q-0.6875 -0.40625 -1.375 -0.40625q-0.609375 0 -1.109375 0.375q-0.484375 0.359375 -0.6875 1.015625q-0.3125 1.0 -0.3125 2.1875l0 5.796875l-1.875 0zm14.696167 -3.5625l1.921875 0.234375q-0.453125 1.703125 -1.6875 2.640625q-1.234375 0.9375 -3.171875 0.9375q-2.421875 0 -3.84375 -1.484375q-1.421875 -1.5 -1.421875 -4.203125q0 -2.796875 1.4375 -4.328125q1.4375 -1.546875 3.734375 -1.546875q2.21875 0 3.609375 1.515625q1.40625 1.5 1.40625 4.25q0 0.15625 0 0.5l-8.25 0q0.109375 1.8125 1.03125 2.78125q0.921875 0.96875 2.3125 0.96875q1.03125 0 1.75 -0.53125q0.734375 -0.546875 1.171875 -1.734375zm-6.15625 -3.03125l6.171875 0q-0.125 -1.390625 -0.703125 -2.09375q-0.90625 -1.078125 -2.328125 -1.078125q-1.296875 0 -2.171875 0.859375q-0.875 0.859375 -0.96875 2.3125zm17.65857 5.234375q-1.046875 0.875 -2.015625 1.25q-0.953125 0.359375 -2.0625 0.359375q-1.8125 0 -2.796875 -0.890625q-0.984375 -0.890625 -0.984375 -2.28125q0 -0.8125 0.375 -1.484375q0.375 -0.671875 0.96875 -1.078125q0.59375 -0.40625 1.34375 -0.609375q0.5625 -0.140625 1.671875 -0.28125q2.265625 -0.265625 3.34375 -0.640625q0.015625 -0.390625 0.015625 -0.5q0 -1.140625 -0.53125 -1.609375q-0.71875 -0.640625 -2.140625 -0.640625q-1.328125 0 -1.953125 0.46875q-0.625 0.46875 -0.9375 1.640625l-1.828125 -0.25q0.25 -1.171875 0.8125 -1.890625q0.578125 -0.734375 1.65625 -1.125q1.09375 -0.390625 2.515625 -0.390625q1.421875 0 2.296875 0.34375q0.890625 0.328125 1.3125 0.828125q0.421875 0.5 0.578125 1.28125q0.09375 0.46875 0.09375 1.71875l0 2.5q0 2.625 0.125 3.3125q0.125 0.6875 0.46875 1.328125l-1.953125 0q-0.296875 -0.578125 -0.375 -1.359375zm-0.15625 -4.1875q-1.015625 0.40625 -3.0625 0.703125q-1.15625 0.171875 -1.640625 0.375q-0.46875 0.203125 -0.734375 0.609375q-0.265625 0.40625 -0.265625 0.890625q0 0.75 0.5625 1.25q0.578125 0.5 1.671875 0.5q1.078125 0 1.921875 -0.46875q0.84375 -0.484375 1.25 -1.296875q0.296875 -0.640625 0.296875 -1.875l0 -0.6875zm4.7991943 5.546875l0 -11.0625l1.671875 0l0 1.546875q0.53125 -0.8125 1.390625 -1.296875q0.859375 -0.5 1.96875 -0.5q1.234375 0 2.015625 0.515625q0.78125 0.5 1.109375 1.421875q1.3125 -1.9375 3.40625 -1.9375q1.65625 0 2.53125 0.921875q0.890625 0.90625 0.890625 2.796875l0 7.59375l-1.859375 0l0 -6.96875q0 -1.125 -0.1875 -1.609375q-0.1875 -0.5 -0.671875 -0.796875q-0.46875 -0.3125 -1.109375 -0.3125q-1.171875 0 -1.9375 0.78125q-0.765625 0.765625 -0.765625 2.484375l0 6.421875l-1.875 0l0 -7.1875q0 -1.25 -0.46875 -1.875q-0.453125 -0.625 -1.5 -0.625q-0.78125 0 -1.453125 0.421875q-0.671875 0.40625 -0.984375 1.21875q-0.296875 0.796875 -0.296875 2.3125l0 5.734375l-1.875 0z" fill-rule="nonzero"/><path fill="#434343" d="m401.00787 166.2126l144.69293 0l0 54.48819l-144.69293 0z" fill-rule="evenodd"/><path stroke="#3c78d8" stroke-width="8.0" stroke-linejoin="round" stroke-linecap="butt" d="m401.00787 166.2126l144.69293 0l0 54.48819l-144.69293 0z" fill-rule="evenodd"/><path fill="#ffffff" d="m445.88745 200.93669l0 -15.265625l3.046875 0l3.609375 10.8125q0.5 1.5 0.734375 2.25q0.265625 -0.828125 0.8125 -2.4375l3.65625 -10.625l2.71875 0l0 15.265625l-1.953125 0l0 -12.78125l-4.4375 12.78125l-1.8125 0l-4.421875 -13.0l0 13.0l-1.953125 0zm16.89151 -5.53125q0 -3.078125 1.71875 -4.546875q1.421875 -1.234375 3.46875 -1.234375q2.28125 0 3.71875 1.5q1.453125 1.484375 1.453125 4.125q0 2.140625 -0.640625 3.359375q-0.625 1.21875 -1.859375 1.90625q-1.21875 0.671875 -2.671875 0.671875q-2.3125 0 -3.75 -1.484375q-1.4375 -1.5 -1.4375 -4.296875zm1.9375 0q0 2.125 0.921875 3.1875q0.921875 1.046875 2.328125 1.046875q1.40625 0 2.328125 -1.0625q0.921875 -1.0625 0.921875 -3.234375q0 -2.046875 -0.9375 -3.109375q-0.921875 -1.0625 -2.3125 -1.0625q-1.40625 0 -2.328125 1.0625q-0.921875 1.046875 -0.921875 3.171875zm17.799194 5.53125l0 -1.390625q-1.046875 1.640625 -3.09375 1.640625q-1.3125 0 -2.421875 -0.71875q-1.109375 -0.734375 -1.71875 -2.046875q-0.609375 -1.3125 -0.609375 -3.0q0 -1.65625 0.546875 -3.0q0.546875 -1.359375 1.65625 -2.078125q1.109375 -0.71875 2.46875 -0.71875q1.0 0 1.78125 0.421875q0.78125 0.421875 1.265625 1.09375l0 -5.46875l1.875 0l0 15.265625l-1.75 0zm-5.921875 -5.515625q0 2.125 0.890625 3.171875q0.90625 1.046875 2.125 1.046875q1.21875 0 2.078125 -1.0q0.859375 -1.0 0.859375 -3.0625q0 -2.28125 -0.875 -3.34375q-0.875 -1.0625 -2.15625 -1.0625q-1.25 0 -2.09375 1.03125q-0.828125 1.015625 -0.828125 3.21875zm18.18982 1.953125l1.921875 0.234375q-0.453125 1.703125 -1.6875 2.640625q-1.234375 0.9375 -3.171875 0.9375q-2.421875 0 -3.84375 -1.484375q-1.421875 -1.5 -1.421875 -4.203125q0 -2.796875 1.4375 -4.328125q1.4375 -1.546875 3.734375 -1.546875q2.21875 0 3.609375 1.515625q1.40625 1.5 1.40625 4.25q0 0.15625 0 0.5l-8.25 0q0.109375 1.8125 1.03125 2.78125q0.921875 0.96875 2.3125 0.96875q1.03125 0 1.75 -0.53125q0.734375 -0.546875 1.171875 -1.734375zm-6.15625 -3.03125l6.171875 0q-0.125 -1.390625 -0.703125 -2.09375q-0.90625 -1.078125 -2.328125 -1.078125q-1.296875 0 -2.171875 0.859375q-0.875 0.859375 -0.96875 2.3125zm10.392944 6.59375l0 -15.265625l1.875 0l0 15.265625l-1.875 0z" fill-rule="nonzero"/><path fill="#434343" d="m401.00787 290.3832l144.69293 0l0 54.48819l-144.69293 0z" fill-rule="evenodd"/><path stroke="#ff00ff" stroke-width="8.0" stroke-linejoin="round" stroke-linecap="butt" d="m401.00787 290.3832l144.69293 0l0 54.48819l-144.69293 0z" fill-rule="evenodd"/><path fill="#ffffff" d="m434.58798 320.20105l1.90625 -0.171875q0.140625 1.15625 0.625 1.890625q0.5 0.734375 1.546875 1.1875q1.046875 0.453125 2.34375 0.453125q1.15625 0 2.03125 -0.34375q0.890625 -0.34375 1.3125 -0.9375q0.4375 -0.609375 0.4375 -1.3125q0 -0.71875 -0.421875 -1.25q-0.40625 -0.546875 -1.359375 -0.90625q-0.609375 -0.25 -2.71875 -0.75q-2.109375 -0.5 -2.953125 -0.953125q-1.09375 -0.578125 -1.625 -1.421875q-0.53125 -0.84375 -0.53125 -1.890625q0 -1.15625 0.65625 -2.15625q0.65625 -1.015625 1.90625 -1.53125q1.265625 -0.53125 2.8125 -0.53125q1.6875 0 2.984375 0.546875q1.296875 0.546875 1.984375 1.609375q0.703125 1.0625 0.765625 2.40625l-1.9375 0.15625q-0.15625 -1.453125 -1.0625 -2.1875q-0.890625 -0.75 -2.65625 -0.75q-1.828125 0 -2.671875 0.671875q-0.84375 0.671875 -0.84375 1.625q0 0.8125 0.59375 1.34375q0.59375 0.53125 3.046875 1.09375q2.46875 0.5625 3.390625 0.96875q1.328125 0.625 1.953125 1.5625q0.640625 0.9375 0.640625 2.171875q0 1.21875 -0.703125 2.296875q-0.6875 1.078125 -2.0 1.6875q-1.296875 0.59375 -2.9375 0.59375q-2.078125 0 -3.484375 -0.609375q-1.390625 -0.609375 -2.1875 -1.8125q-0.796875 -1.21875 -0.84375 -2.75zm18.772552 3.234375l0.265625 1.65625q-0.78125 0.15625 -1.40625 0.15625q-1.03125 0 -1.59375 -0.3125q-0.5625 -0.328125 -0.796875 -0.84375q-0.21875 -0.53125 -0.21875 -2.21875l0 -6.375l-1.375 0l0 -1.453125l1.375 0l0 -2.734375l1.859375 -1.125l0 3.859375l1.890625 0l0 1.453125l-1.890625 0l0 6.46875q0 0.8125 0.09375 1.046875q0.109375 0.21875 0.328125 0.359375q0.234375 0.125 0.640625 0.125q0.3125 0 0.828125 -0.0625zm9.410034 -1.890625l1.921875 0.234375q-0.453125 1.703125 -1.6875 2.640625q-1.234375 0.9375 -3.171875 0.9375q-2.421875 0 -3.84375 -1.484375q-1.421875 -1.5 -1.421875 -4.203125q0 -2.796875 1.4375 -4.328125q1.4375 -1.546875 3.734375 -1.546875q2.21875 0 3.609375 1.515625q1.40625 1.5 1.40625 4.25q0 0.15625 0 0.5l-8.25 0q0.109375 1.8125 1.03125 2.78125q0.921875 0.96875 2.3125 0.96875q1.03125 0 1.75 -0.53125q0.734375 -0.546875 1.171875 -1.734375zm-6.15625 -3.03125l6.171875 0q-0.125 -1.390625 -0.703125 -2.09375q-0.90625 -1.078125 -2.328125 -1.078125q-1.296875 0 -2.171875 0.859375q-0.875 0.859375 -0.96875 2.3125zm18.017944 3.03125l1.921875 0.234375q-0.453125 1.703125 -1.6875 2.640625q-1.234375 0.9375 -3.171875 0.9375q-2.421875 0 -3.84375 -1.484375q-1.421875 -1.5 -1.421875 -4.203125q0 -2.796875 1.4375 -4.328125q1.4375 -1.546875 3.734375 -1.546875q2.21875 0 3.609375 1.515625q1.40625 1.5 1.40625 4.25q0 0.15625 0 0.5l-8.25 0q0.109375 1.8125 1.03125 2.78125q0.921875 0.96875 2.3125 0.96875q1.03125 0 1.75 -0.53125q0.734375 -0.546875 1.171875 -1.734375zm-6.15625 -3.03125l6.171875 0q-0.125 -1.390625 -0.703125 -2.09375q-0.90625 -1.078125 -2.328125 -1.078125q-1.296875 0 -2.171875 0.859375q-0.875 0.859375 -0.96875 2.3125zm10.424194 6.59375l0 -11.0625l1.6875 0l0 1.671875q0.640625 -1.171875 1.1875 -1.546875q0.546875 -0.375 1.203125 -0.375q0.953125 0 1.921875 0.609375l-0.640625 1.734375q-0.6875 -0.40625 -1.375 -0.40625q-0.609375 0 -1.109375 0.375q-0.484375 0.359375 -0.6875 1.015625q-0.3125 1.0 -0.3125 2.1875l0 5.796875l-1.875 0zm7.133667 -13.109375l0 -2.15625l1.875 0l0 2.15625l-1.875 0zm0 13.109375l0 -11.0625l1.875 0l0 11.0625l-1.875 0zm4.722809 0l0 -11.0625l1.6875 0l0 1.578125q1.21875 -1.828125 3.515625 -1.828125q1.0 0 1.84375 0.359375q0.84375 0.359375 1.25 0.953125q0.421875 0.578125 0.59375 1.375q0.09375 0.515625 0.09375 1.828125l0 6.796875l-1.875 0l0 -6.734375q0 -1.140625 -0.21875 -1.703125q-0.21875 -0.578125 -0.78125 -0.90625q-0.546875 -0.34375 -1.296875 -0.34375q-1.203125 0 -2.078125 0.765625q-0.859375 0.75 -0.859375 2.875l0 6.046875l-1.875 0zm11.517944 0.921875l1.828125 0.265625q0.109375 0.84375 0.625 1.234375q0.703125 0.515625 1.90625 0.515625q1.3125 0 2.015625 -0.53125q0.703125 -0.515625 0.953125 -1.453125q0.15625 -0.5625 0.140625 -2.40625q-1.234375 1.453125 -3.0625 1.453125q-2.28125 0 -3.53125 -1.640625q-1.25 -1.65625 -1.25 -3.953125q0 -1.578125 0.5625 -2.921875q0.578125 -1.34375 1.671875 -2.0625q1.09375 -0.734375 2.5625 -0.734375q1.953125 0 3.21875 1.578125l0 -1.328125l1.734375 0l0 9.5625q0 2.578125 -0.53125 3.65625q-0.515625 1.078125 -1.65625 1.703125q-1.140625 0.625 -2.8125 0.625q-1.984375 0 -3.203125 -0.890625q-1.21875 -0.890625 -1.171875 -2.671875zm1.546875 -6.65625q0 2.1875 0.859375 3.1875q0.875 1.0 2.171875 1.0q1.296875 0 2.171875 -1.0q0.875 -1.0 0.875 -3.125q0 -2.03125 -0.90625 -3.0625q-0.890625 -1.03125 -2.171875 -1.03125q-1.25 0 -2.125 1.015625q-0.875 1.015625 -0.875 3.015625z" fill-rule="nonzero"/><path fill="#434343" d="m16.0 244.8819l245.95276 0l0 77.60629l-245.95276 0z" fill-rule="evenodd"/><path stroke="#674ea7" stroke-width="8.0" stroke-linejoin="round" stroke-linecap="butt" d="m16.0 244.8819l245.95276 0l0 77.60629l-245.95276 0z" fill-rule="evenodd"/><path fill="#ffffff" d="m89.30318 272.18066l0 -1.796875l6.453125 -0.015625l0 5.671875q-1.484375 1.1875 -3.0625 1.796875q-1.578125 0.59375 -3.25 0.59375q-2.25 0 -4.09375 -0.96875q-1.828125 -0.96875 -2.765625 -2.78125q-0.9375 -1.828125 -0.9375 -4.078125q0 -2.234375 0.921875 -4.15625q0.9375 -1.9375 2.6875 -2.875q1.75 -0.9375 4.03125 -0.9375q1.65625 0 2.984375 0.546875q1.34375 0.53125 2.09375 1.5q0.765625 0.953125 1.171875 2.484375l-1.828125 0.5q-0.34375 -1.15625 -0.859375 -1.828125q-0.5 -0.671875 -1.453125 -1.0625q-0.9375 -0.40625 -2.09375 -0.40625q-1.390625 0 -2.40625 0.421875q-1.0 0.421875 -1.625 1.109375q-0.625 0.6875 -0.96875 1.515625q-0.578125 1.40625 -0.578125 3.0625q0 2.046875 0.703125 3.421875q0.703125 1.375 2.046875 2.046875q1.34375 0.65625 2.859375 0.65625q1.3125 0 2.546875 -0.5q1.25 -0.515625 1.90625 -1.078125l0 -2.84375l-4.484375 0zm20.324081 0.625l2.03125 0.515625q-0.640625 2.484375 -2.296875 3.796875q-1.640625 1.3125 -4.03125 1.3125q-2.46875 0 -4.015625 -1.0q-1.546875 -1.015625 -2.359375 -2.921875q-0.796875 -1.90625 -0.796875 -4.09375q0 -2.390625 0.90625 -4.15625q0.921875 -1.78125 2.59375 -2.703125q1.6875 -0.921875 3.703125 -0.921875q2.296875 0 3.859375 1.171875q1.5625 1.171875 2.171875 3.28125l-1.984375 0.46875q-0.53125 -1.671875 -1.546875 -2.421875q-1.0 -0.765625 -2.53125 -0.765625q-1.765625 0 -2.953125 0.84375q-1.171875 0.84375 -1.65625 2.265625q-0.484375 1.421875 -0.484375 2.921875q0 1.953125 0.5625 3.40625q0.578125 1.453125 1.765625 2.171875q1.203125 0.71875 2.609375 0.71875q1.6875 0 2.859375 -0.96875q1.1875 -0.984375 1.59375 -2.921875zm3.8243713 0.453125l1.90625 -0.171875q0.140625 1.15625 0.625 1.890625q0.5 0.734375 1.546875 1.1875q1.046875 0.453125 2.34375 0.453125q1.15625 0 2.03125 -0.34375q0.890625 -0.34375 1.3125 -0.9375q0.4375 -0.609375 0.4375 -1.3125q0 -0.71875 -0.421875 -1.25q-0.40625 -0.546875 -1.359375 -0.90625q-0.609375 -0.25 -2.71875 -0.75q-2.109375 -0.5 -2.953125 -0.953125q-1.09375 -0.578125 -1.625 -1.421875q-0.53125 -0.84375 -0.53125 -1.890625q0 -1.15625 0.65625 -2.15625q0.65625 -1.015625 1.90625 -1.53125q1.265625 -0.53125 2.8125 -0.53125q1.6875 0 2.984375 0.546875q1.296875 0.546875 1.984375 1.609375q0.703125 1.0625 0.765625 2.40625l-1.9375 0.15625q-0.15625 -1.453125 -1.0625 -2.1875q-0.890625 -0.75 -2.65625 -0.75q-1.828125 0 -2.671875 0.671875q-0.84375 0.671875 -0.84375 1.625q0 0.8125 0.59375 1.34375q0.59375 0.53125 3.046875 1.09375q2.46875 0.5625 3.390625 0.96875q1.328125 0.625 1.953125 1.5625q0.640625 0.9375 0.640625 2.171875q0 1.21875 -0.703125 2.296875q-0.6875 1.078125 -2.0 1.6875q-1.296875 0.59375 -2.9375 0.59375q-2.078125 0 -3.484375 -0.609375q-1.390625 -0.609375 -2.1875 -1.8125q-0.796875 -1.21875 -0.84375 -2.75zm23.510712 4.90625l-4.046875 -15.265625l2.0625 0l2.328125 10.0q0.375 1.578125 0.640625 3.125q0.59375 -2.4375 0.6875 -2.8125l2.90625 -10.3125l2.4375 0l2.1875 7.71875q0.828125 2.875 1.1875 5.40625q0.296875 -1.4375 0.765625 -3.3125l2.390625 -9.8125l2.03125 0l-4.1875 15.265625l-1.953125 0l-3.203125 -11.625q-0.40625 -1.46875 -0.484375 -1.796875q-0.234375 1.046875 -0.453125 1.796875l-3.234375 11.625l-2.0625 0zm24.416962 -3.5625l1.921875 0.234375q-0.453125 1.703125 -1.6875 2.640625q-1.234375 0.9375 -3.171875 0.9375q-2.421875 0 -3.84375 -1.484375q-1.421875 -1.5 -1.421875 -4.203125q0 -2.796875 1.4375 -4.328125q1.4375 -1.546875 3.734375 -1.546875q2.21875 0 3.609375 1.515625q1.40625 1.5 1.40625 4.25q0 0.15625 0 0.5l-8.25 0q0.109375 1.8125 1.03125 2.78125q0.921875 0.96875 2.3125 0.96875q1.03125 0 1.75 -0.53125q0.734375 -0.546875 1.171875 -1.734375zm-6.15625 -3.03125l6.171875 0q-0.125 -1.390625 -0.703125 -2.09375q-0.90625 -1.078125 -2.328125 -1.078125q-1.296875 0 -2.171875 0.859375q-0.875 0.859375 -0.96875 2.3125zm12.174194 6.59375l-1.75 0l0 -15.265625l1.875 0l0 5.4375q1.1875 -1.484375 3.03125 -1.484375q1.03125 0 1.9375 0.421875q0.90625 0.40625 1.5 1.15625q0.59375 0.734375 0.921875 1.796875q0.328125 1.046875 0.328125 2.234375q0 2.84375 -1.40625 4.40625q-1.40625 1.546875 -3.375 1.546875q-1.953125 0 -3.0625 -1.640625l0 1.390625zm-0.03125 -5.609375q0 1.984375 0.546875 2.875q0.890625 1.4375 2.390625 1.4375q1.234375 0 2.125 -1.0625q0.90625 -1.0625 0.90625 -3.1875q0 -2.15625 -0.859375 -3.1875q-0.859375 -1.03125 -2.078125 -1.03125q-1.234375 0 -2.140625 1.0625q-0.890625 1.0625 -0.890625 3.09375zm20.40857 -9.65625l2.03125 0l0 8.8125q0 2.3125 -0.53125 3.671875q-0.515625 1.34375 -1.875 2.203125q-1.359375 0.84375 -3.5625 0.84375q-2.140625 0 -3.515625 -0.734375q-1.359375 -0.75 -1.953125 -2.140625q-0.578125 -1.40625 -0.578125 -3.84375l0 -8.8125l2.03125 0l0 8.8125q0 1.984375 0.359375 2.9375q0.375 0.9375 1.265625 1.453125q0.90625 0.5 2.21875 0.5q2.21875 0 3.15625 -1.0q0.953125 -1.015625 0.953125 -3.890625l0 -8.8125zm5.7306213 15.265625l0 -15.265625l2.03125 0l0 15.265625l-2.03125 0z" fill-rule="nonzero"/><path fill="#ffffff" d="m51.030174 304.16504l-4.046875 -15.265625l2.0625 0l2.328125 10.0q0.375 1.578125 0.640625 3.125q0.59375 -2.4375 0.6875 -2.8125l2.90625 -10.3125l2.4375 0l2.1875 7.71875q0.828125 2.875 1.1875 5.40625q0.296875 -1.4375 0.765625 -3.3125l2.390625 -9.8125l2.03125 0l-4.1875 15.265625l-1.953125 0l-3.203125 -11.625q-0.40625 -1.46875 -0.484375 -1.796875q-0.234375 1.046875 -0.453125 1.796875l-3.234375 11.625l-2.0625 0zm24.416962 -3.5625l1.921875 0.234375q-0.453125 1.703125 -1.6875 2.640625q-1.234375 0.9375 -3.171875 0.9375q-2.421875 0 -3.84375 -1.484375q-1.421875 -1.5 -1.421875 -4.203125q0 -2.796875 1.4375 -4.328125q1.4375 -1.546875 3.734375 -1.546875q2.21875 0 3.609375 1.515625q1.40625 1.5 1.40625 4.25q0 0.15625 0 0.5l-8.25 0q0.109375 1.8125 1.03125 2.78125q0.921875 0.96875 2.3125 0.96875q1.03125 0 1.75 -0.53125q0.734375 -0.546875 1.171875 -1.734375zm-6.15625 -3.03125l6.171875 0q-0.125 -1.390625 -0.703125 -2.09375q-0.90625 -1.078125 -2.328125 -1.078125q-1.296875 0 -2.171875 0.859375q-0.875 0.859375 -0.96875 2.3125zm12.174194 6.59375l-1.75 0l0 -15.265625l1.875 0l0 5.4375q1.1875 -1.484375 3.03125 -1.484375q1.03125 0 1.9375 0.421875q0.90625 0.40625 1.5 1.15625q0.59375 0.734375 0.921875 1.796875q0.328125 1.046875 0.328125 2.234375q0 2.84375 -1.40625 4.40625q-1.40625 1.546875 -3.375 1.546875q-1.953125 0 -3.0625 -1.640625l0 1.390625zm-0.03125 -5.609375q0 1.984375 0.546875 2.875q0.890625 1.4375 2.390625 1.4375q1.234375 0 2.125 -1.0625q0.90625 -1.0625 0.90625 -3.1875q0 -2.15625 -0.859375 -3.1875q-0.859375 -1.03125 -2.078125 -1.03125q-1.234375 0 -2.140625 1.0625q-0.890625 1.0625 -0.890625 3.09375zm9.705444 0.703125l1.90625 -0.171875q0.140625 1.15625 0.625 1.890625q0.5 0.734375 1.546875 1.1875q1.046875 0.453125 2.34375 0.453125q1.15625 0 2.03125 -0.34375q0.890625 -0.34375 1.3125 -0.9375q0.4375 -0.609375 0.4375 -1.3125q0 -0.71875 -0.421875 -1.25q-0.40625 -0.546875 -1.359375 -0.90625q-0.609375 -0.25 -2.71875 -0.75q-2.109375 -0.5 -2.953125 -0.953125q-1.09375 -0.578125 -1.625 -1.421875q-0.53125 -0.84375 -0.53125 -1.890625q0 -1.15625 0.65625 -2.15625q0.65625 -1.015625 1.90625 -1.53125q1.265625 -0.53125 2.8125 -0.53125q1.6875 0 2.984375 0.546875q1.296875 0.546875 1.984375 1.609375q0.703125 1.0625 0.765625 2.40625l-1.9375 0.15625q-0.15625 -1.453125 -1.0625 -2.1875q-0.890625 -0.75 -2.65625 -0.75q-1.828125 0 -2.671875 0.671875q-0.84375 0.671875 -0.84375 1.625q0 0.8125 0.59375 1.34375q0.59375 0.53125 3.046875 1.09375q2.46875 0.5625 3.390625 0.96875q1.328125 0.625 1.953125 1.5625q0.640625 0.9375 0.640625 2.171875q0 1.21875 -0.703125 2.296875q-0.6875 1.078125 -2.0 1.6875q-1.296875 0.59375 -2.9375 0.59375q-2.078125 0 -3.484375 -0.609375q-1.390625 -0.609375 -2.1875 -1.8125q-0.796875 -1.21875 -0.84375 -2.75zm13.975693 -0.625q0 -3.078125 1.71875 -4.546875q1.421875 -1.234375 3.46875 -1.234375q2.28125 0 3.71875 1.5q1.453125 1.484375 1.453125 4.125q0 2.140625 -0.640625 3.359375q-0.625 1.21875 -1.859375 1.90625q-1.21875 0.671875 -2.671875 0.671875q-2.3125 0 -3.75 -1.484375q-1.4375 -1.5 -1.4375 -4.296875zm1.9375 0q0 2.125 0.921875 3.1875q0.921875 1.046875 2.328125 1.046875q1.40625 0 2.328125 -1.0625q0.921875 -1.0625 0.921875 -3.234375q0 -2.046875 -0.9375 -3.109375q-0.921875 -1.0625 -2.3125 -1.0625q-1.40625 0 -2.328125 1.0625q-0.921875 1.046875 -0.921875 3.171875zm17.84607 1.484375l1.84375 0.234375q-0.296875 1.90625 -1.546875 2.984375q-1.25 1.078125 -3.0625 1.078125q-2.265625 0 -3.65625 -1.484375q-1.375 -1.484375 -1.375 -4.25q0 -1.796875 0.59375 -3.140625q0.59375 -1.34375 1.8125 -2.015625q1.21875 -0.671875 2.640625 -0.671875q1.796875 0 2.9375 0.921875q1.15625 0.90625 1.484375 2.578125l-1.828125 0.28125q-0.265625 -1.109375 -0.921875 -1.671875q-0.65625 -0.5625 -1.59375 -0.5625q-1.421875 0 -2.3125 1.015625q-0.875 1.015625 -0.875 3.203125q0 2.234375 0.84375 3.25q0.859375 1.0 2.234375 1.0q1.109375 0 1.84375 -0.671875q0.734375 -0.671875 0.9375 -2.078125zm3.4609299 4.046875l0 -15.265625l1.875 0l0 8.703125l4.4375 -4.5l2.421875 0l-4.234375 4.109375l4.65625 6.953125l-2.3125 0l-3.65625 -5.65625l-1.3125 1.265625l0 4.390625l-1.875 0zm18.226562 -3.5625l1.921875 0.234375q-0.453125 1.703125 -1.6875 2.640625q-1.234375 0.9375 -3.171875 0.9375q-2.421875 0 -3.84375 -1.484375q-1.421875 -1.5 -1.421875 -4.203125q0 -2.796875 1.4375 -4.328125q1.4375 -1.546875 3.734375 -1.546875q2.21875 0 3.609375 1.515625q1.40625 1.5 1.40625 4.25q0 0.15625 0 0.5l-8.25 0q0.109375 1.8125 1.03125 2.78125q0.921875 0.96875 2.3125 0.96875q1.03125 0 1.75 -0.53125q0.734375 -0.546875 1.171875 -1.734375zm-6.15625 -3.03125l6.171875 0q-0.125 -1.390625 -0.703125 -2.09375q-0.90625 -1.078125 -2.328125 -1.078125q-1.296875 0 -2.171875 0.859375q-0.875 0.859375 -0.96875 2.3125zm14.533569 4.921875l0.265625 1.65625q-0.78125 0.15625 -1.40625 0.15625q-1.03125 0 -1.59375 -0.3125q-0.5625 -0.328125 -0.796875 -0.84375q-0.21875 -0.53125 -0.21875 -2.21875l0 -6.375l-1.375 0l0 -1.453125l1.375 0l0 -2.734375l1.859375 -1.125l0 3.859375l1.890625 0l0 1.453125l-1.890625 0l0 6.46875q0 0.8125 0.09375 1.046875q0.109375 0.21875 0.328125 0.359375q0.234375 0.125 0.640625 0.125q0.3125 0 0.828125 -0.0625zm1.0819092 -1.625l1.859375 -0.296875q0.15625 1.109375 0.859375 1.703125q0.71875 0.59375 2.0 0.59375q1.296875 0 1.921875 -0.515625q0.625 -0.53125 0.625 -1.234375q0 -0.640625 -0.5625 -1.0q-0.375 -0.25 -1.90625 -0.640625q-2.0625 -0.515625 -2.859375 -0.890625q-0.796875 -0.390625 -1.21875 -1.0625q-0.40625 -0.671875 -0.40625 -1.484375q0 -0.734375 0.328125 -1.359375q0.34375 -0.640625 0.9375 -1.0625q0.4375 -0.3125 1.1875 -0.53125q0.75 -0.234375 1.625 -0.234375q1.296875 0 2.28125 0.375q0.984375 0.375 1.453125 1.015625q0.46875 0.640625 0.640625 1.71875l-1.828125 0.25q-0.125 -0.859375 -0.734375 -1.328125q-0.59375 -0.484375 -1.6875 -0.484375q-1.28125 0 -1.84375 0.421875q-0.546875 0.421875 -0.546875 1.0q0 0.359375 0.234375 0.65625q0.21875 0.296875 0.71875 0.5q0.28125 0.109375 1.65625 0.484375q1.984375 0.53125 2.765625 0.875q0.796875 0.328125 1.234375 0.984375q0.453125 0.640625 0.453125 1.59375q0 0.9375 -0.546875 1.765625q-0.546875 0.828125 -1.578125 1.28125q-1.03125 0.453125 -2.328125 0.453125q-2.15625 0 -3.296875 -0.890625q-1.125 -0.90625 -1.4375 -2.65625zm16.589691 0l1.859375 -0.296875q0.15625 1.109375 0.859375 1.703125q0.71875 0.59375 2.0 0.59375q1.296875 0 1.921875 -0.515625q0.625 -0.53125 0.625 -1.234375q0 -0.640625 -0.5625 -1.0q-0.375 -0.25 -1.90625 -0.640625q-2.0625 -0.515625 -2.859375 -0.890625q-0.796875 -0.390625 -1.21875 -1.0625q-0.40625 -0.671875 -0.40625 -1.484375q0 -0.734375 0.328125 -1.359375q0.34375 -0.640625 0.9375 -1.0625q0.4375 -0.3125 1.1875 -0.53125q0.75 -0.234375 1.625 -0.234375q1.296875 0 2.28125 0.375q0.984375 0.375 1.453125 1.015625q0.46875 0.640625 0.640625 1.71875l-1.828125 0.25q-0.125 -0.859375 -0.734375 -1.328125q-0.59375 -0.484375 -1.6875 -0.484375q-1.28125 0 -1.84375 0.421875q-0.546875 0.421875 -0.546875 1.0q0 0.359375 0.234375 0.65625q0.21875 0.296875 0.71875 0.5q0.28125 0.109375 1.65625 0.484375q1.984375 0.53125 2.765625 0.875q0.796875 0.328125 1.234375 0.984375q0.453125 0.640625 0.453125 1.59375q0 0.9375 -0.546875 1.765625q-0.546875 0.828125 -1.578125 1.28125q-1.03125 0.453125 -2.328125 0.453125q-2.15625 0 -3.296875 -0.890625q-1.125 -0.90625 -1.4375 -2.65625zm18.992188 -0.265625l1.921875 0.234375q-0.453125 1.703125 -1.6875 2.640625q-1.234375 0.9375 -3.171875 0.9375q-2.421875 0 -3.84375 -1.484375q-1.421875 -1.5 -1.421875 -4.203125q0 -2.796875 1.4375 -4.328125q1.4375 -1.546875 3.734375 -1.546875q2.21875 0 3.609375 1.515625q1.40625 1.5 1.40625 4.25q0 0.15625 0 0.5l-8.25 0q0.109375 1.8125 1.03125 2.78125q0.921875 0.96875 2.3125 0.96875q1.03125 0 1.75 -0.53125q0.734375 -0.546875 1.171875 -1.734375zm-6.15625 -3.03125l6.171875 0q-0.125 -1.390625 -0.703125 -2.09375q-0.90625 -1.078125 -2.328125 -1.078125q-1.296875 0 -2.171875 0.859375q-0.875 0.859375 -0.96875 2.3125zm10.424194 6.59375l0 -11.0625l1.6875 0l0 1.671875q0.640625 -1.171875 1.1875 -1.546875q0.546875 -0.375 1.203125 -0.375q0.953125 0 1.921875 0.609375l-0.640625 1.734375q-0.6875 -0.40625 -1.375 -0.40625q-0.609375 0 -1.109375 0.375q-0.484375 0.359375 -0.6875 1.015625q-0.3125 1.0 -0.3125 2.1875l0 5.796875l-1.875 0zm10.1961975 0l-4.21875 -11.0625l1.984375 0l2.375 6.625q0.390625 1.078125 0.703125 2.234375q0.25 -0.875 0.703125 -2.109375l2.453125 -6.75l1.9375 0l-4.1875 11.0625l-1.75 0zm15.1640625 -3.5625l1.921875 0.234375q-0.453125 1.703125 -1.6875 2.640625q-1.234375 0.9375 -3.171875 0.9375q-2.421875 0 -3.84375 -1.484375q-1.421875 -1.5 -1.421875 -4.203125q0 -2.796875 1.4375 -4.328125q1.4375 -1.546875 3.734375 -1.546875q2.21875 0 3.609375 1.515625q1.40625 1.5 1.40625 4.25q0 0.15625 0 0.5l-8.25 0q0.109375 1.8125 1.03125 2.78125q0.921875 0.96875 2.3125 0.96875q1.03125 0 1.75 -0.53125q0.734375 -0.546875 1.171875 -1.734375zm-6.15625 -3.03125l6.171875 0q-0.125 -1.390625 -0.703125 -2.09375q-0.90625 -1.078125 -2.328125 -1.078125q-1.296875 0 -2.171875 0.859375q-0.875 0.859375 -0.96875 2.3125zm10.424194 6.59375l0 -11.0625l1.6875 0l0 1.671875q0.640625 -1.171875 1.1875 -1.546875q0.546875 -0.375 1.203125 -0.375q0.953125 0 1.921875 0.609375l-0.640625 1.734375q-0.6875 -0.40625 -1.375 -0.40625q-0.609375 0 -1.109375 0.375q-0.484375 0.359375 -0.6875 1.015625q-0.3125 1.0 -0.3125 2.1875l0 5.796875l-1.875 0z" fill-rule="nonzero"/><path fill="#434343" d="m213.60367 564.7559l144.69293 0l0 54.48816l-144.69293 0z" fill-rule="evenodd"/><path stroke="#f1c232" stroke-width="8.0" stroke-linejoin="round" stroke-linecap="butt" d="m213.60367 564.7559l144.69293 0l0 54.48816l-144.69293 0z" fill-rule="evenodd"/><path fill="#ffffff" d="m267.38214 599.48l0 -15.265625l3.046875 0l3.609375 10.8125q0.5 1.5 0.734375 2.25q0.265625 -0.828125 0.8125 -2.4375l3.65625 -10.625l2.71875 0l0 15.265625l-1.953125 0l0 -12.78125l-4.4375 12.78125l-1.8125 0l-4.421875 -13.0l0 13.0l-1.953125 0zm24.813354 -1.359375q-1.046875 0.875 -2.015625 1.25q-0.953125 0.359375 -2.0625 0.359375q-1.8125 0 -2.796875 -0.890625q-0.984375 -0.890625 -0.984375 -2.28125q0 -0.8125 0.375 -1.484375q0.375 -0.671875 0.96875 -1.078125q0.59375 -0.40625 1.34375 -0.609375q0.5625 -0.140625 1.671875 -0.28125q2.265625 -0.265625 3.34375 -0.640625q0.015625 -0.390625 0.015625 -0.5q0 -1.140625 -0.53125 -1.609375q-0.71875 -0.640625 -2.140625 -0.640625q-1.328125 0 -1.953125 0.46875q-0.625 0.46875 -0.9375 1.640625l-1.828125 -0.25q0.25 -1.171875 0.8125 -1.890625q0.578125 -0.734375 1.65625 -1.125q1.09375 -0.390625 2.515625 -0.390625q1.421875 0 2.296875 0.34375q0.890625 0.328125 1.3125 0.828125q0.421875 0.5 0.578125 1.28125q0.09375 0.46875 0.09375 1.71875l0 2.5q0 2.625 0.125 3.3125q0.125 0.6875 0.46875 1.328125l-1.953125 0q-0.296875 -0.578125 -0.375 -1.359375zm-0.15625 -4.1875q-1.015625 0.40625 -3.0625 0.703125q-1.15625 0.171875 -1.640625 0.375q-0.46875 0.203125 -0.734375 0.609375q-0.265625 0.40625 -0.265625 0.890625q0 0.75 0.5625 1.25q0.578125 0.5 1.671875 0.5q1.078125 0 1.921875 -0.46875q0.84375 -0.484375 1.25 -1.296875q0.296875 -0.640625 0.296875 -1.875l0 -0.6875zm7.8773193 5.546875l-4.21875 -11.0625l1.984375 0l2.375 6.625q0.390625 1.078125 0.703125 2.234375q0.25 -0.875 0.703125 -2.109375l2.453125 -6.75l1.9375 0l-4.1875 11.0625l-1.75 0z" fill-rule="nonzero"/><path fill="#434343" d="m213.60367 426.3937l144.69293 0l0 54.48819l-144.69293 0z" fill-rule="evenodd"/><path stroke="#990000" stroke-width="8.0" stroke-linejoin="round" stroke-linecap="butt" d="m213.60367 426.3937l144.69293 0l0 54.48819l-144.69293 0z" fill-rule="evenodd"/><path fill="#ffffff" d="m263.8934 461.1178l0 -15.265625l5.265625 0q1.78125 0 2.71875 0.21875q1.3125 0.296875 2.234375 1.09375q1.203125 1.015625 1.796875 2.609375q0.609375 1.578125 0.609375 3.625q0 1.734375 -0.40625 3.078125q-0.40625 1.34375 -1.046875 2.234375q-0.625 0.875 -1.390625 1.390625q-0.75 0.5 -1.8125 0.765625q-1.0625 0.25 -2.453125 0.25l-5.515625 0zm2.03125 -1.796875l3.25 0q1.515625 0 2.375 -0.28125q0.859375 -0.28125 1.375 -0.796875q0.703125 -0.71875 1.109375 -1.921875q0.40625 -1.21875 0.40625 -2.953125q0 -2.390625 -0.796875 -3.671875q-0.78125 -1.296875 -1.90625 -1.734375q-0.8125 -0.3125 -2.609375 -0.3125l-3.203125 0l0 11.671875zm13.308746 1.796875l0 -15.265625l3.046875 0l3.609375 10.8125q0.5 1.5 0.734375 2.25q0.265625 -0.828125 0.8125 -2.4375l3.65625 -10.625l2.71875 0l0 15.265625l-1.953125 0l0 -12.78125l-4.4375 12.78125l-1.8125 0l-4.421875 -13.0l0 13.0l-1.953125 0zm17.14151 -4.90625l1.90625 -0.171875q0.140625 1.15625 0.625 1.890625q0.5 0.734375 1.546875 1.1875q1.046875 0.453125 2.34375 0.453125q1.15625 0 2.03125 -0.34375q0.890625 -0.34375 1.3125 -0.9375q0.4375 -0.609375 0.4375 -1.3125q0 -0.71875 -0.421875 -1.25q-0.40625 -0.546875 -1.359375 -0.90625q-0.609375 -0.25 -2.71875 -0.75q-2.109375 -0.5 -2.953125 -0.953125q-1.09375 -0.578125 -1.625 -1.421875q-0.53125 -0.84375 -0.53125 -1.890625q0 -1.15625 0.65625 -2.15625q0.65625 -1.015625 1.90625 -1.53125q1.265625 -0.53125 2.8125 -0.53125q1.6875 0 2.984375 0.546875q1.296875 0.546875 1.984375 1.609375q0.703125 1.0625 0.765625 2.40625l-1.9375 0.15625q-0.15625 -1.453125 -1.0625 -2.1875q-0.890625 -0.75 -2.65625 -0.75q-1.828125 0 -2.671875 0.671875q-0.84375 0.671875 -0.84375 1.625q0 0.8125 0.59375 1.34375q0.59375 0.53125 3.046875 1.09375q2.46875 0.5625 3.390625 0.96875q1.328125 0.625 1.953125 1.5625q0.640625 0.9375 0.640625 2.171875q0 1.21875 -0.703125 2.296875q-0.6875 1.078125 -2.0 1.6875q-1.296875 0.59375 -2.9375 0.59375q-2.078125 0 -3.484375 -0.609375q-1.390625 -0.609375 -2.1875 -1.8125q-0.796875 -1.21875 -0.84375 -2.75z" fill-rule="nonzero"/><path fill="#000000" fill-opacity="0.0" d="m285.95013 70.48819l0 47.8621l187.40158 0l0 47.85444" fill-rule="evenodd"/><path stroke="#434343" stroke-width="3.0" stroke-linejoin="round" stroke-linecap="butt" d="m285.95013 70.48819l0 47.86209l187.40158 0l0 29.854446" fill-rule="evenodd"/><path fill="#434343" stroke="#434343" stroke-width="3.0" stroke-linecap="butt" d="m468.3965 148.20473l4.9552 13.614288l4.9552 -13.614288z" fill-rule="evenodd"/><path fill="#000000" fill-opacity="0.0" d="m473.35434 220.70079l0 69.6693" fill-rule="evenodd"/><path stroke="#434343" stroke-width="3.0" stroke-linejoin="round" stroke-linecap="butt" d="m473.35434 220.70079l0 51.669296" fill-rule="evenodd"/><path fill="#434343" stroke="#434343" stroke-width="3.0" stroke-linecap="butt" d="m468.39914 272.3701l4.9552 13.614288l4.9552 -13.614288z" fill-rule="evenodd"/><path fill="#000000" fill-opacity="0.0" d="m473.35434 344.8714l0 108.75589l-115.055115 0" fill-rule="evenodd"/><path stroke="#434343" stroke-width="3.0" stroke-linejoin="round" stroke-linecap="butt" d="m473.35434 344.8714l0 108.75589l-97.055115 0" fill-rule="evenodd"/><path fill="#434343" stroke="#434343" stroke-width="3.0" stroke-linecap="butt" d="m376.29922 448.6721l-13.614319 4.9552l13.614319 4.9552z" fill-rule="evenodd"/><path fill="#000000" fill-opacity="0.0" d="m285.95013 480.8819l0 83.87402" fill-rule="evenodd"/><path stroke="#434343" stroke-width="3.0" stroke-linejoin="round" stroke-linecap="butt" d="m285.95013 480.8819l0 65.87402" fill-rule="evenodd"/><path fill="#434343" stroke="#434343" stroke-width="3.0" stroke-linecap="butt" d="m280.99493 546.7559l4.9552 13.614258l4.9552 -13.614258z" fill-rule="evenodd"/><path fill="#000000" fill-opacity="0.0" d="m285.95013 70.48819l0 47.469963l-146.96063 0l0 126.923744" fill-rule="evenodd"/><path stroke="#434343" stroke-width="3.0" stroke-linejoin="round" stroke-linecap="butt" stroke-dasharray="3.0,9.0" d="m285.95013 70.48819l0 47.46997l-146.96063 0l0 108.92374" fill-rule="evenodd"/><path fill="#434343" stroke="#434343" stroke-width="3.0" stroke-linecap="butt" d="m134.0343 226.8819l4.9552 13.614288l4.9552 -13.614288z" fill-rule="evenodd"/><path fill="#000000" fill-opacity="0.0" d="m401.00787 193.4567l-142.97403 0l0 51.307083l-0.8370056 0" fill-rule="evenodd"/><path stroke="#434343" stroke-width="3.0" stroke-linejoin="round" stroke-linecap="butt" stroke-dasharray="3.0,9.0" d="m401.00787 193.4567l-142.97403 0l0 33.32657" fill-rule="evenodd"/><path fill="#434343" stroke="#434343" stroke-width="3.0" stroke-linecap="butt" d="m253.084 226.55284l4.3167877 13.829971l5.5828857 -13.369156z" fill-rule="evenodd"/><path fill="#000000" fill-opacity="0.0" d="m401.00787 317.6273l-69.52756 0l0 -33.95276l-69.52756 0" fill-rule="evenodd"/><path stroke="#434343" stroke-width="3.0" stroke-linejoin="round" stroke-linecap="butt" stroke-dasharray="3.0,9.0" d="m401.00787 317.6273l-69.52756 0l0 -33.95276l-51.527557 0" fill-rule="evenodd"/><path fill="#434343" stroke="#434343" stroke-width="3.0" stroke-linecap="butt" d="m279.95276 278.71933l-13.614288 4.9552l13.614288 4.9552z" fill-rule="evenodd"/><path fill="#000000" fill-opacity="0.0" d="m138.97638 322.4882l0 131.1496l74.61417 0" fill-rule="evenodd"/><path stroke="#434343" stroke-width="3.0" stroke-linejoin="round" stroke-linecap="butt" d="m138.97638 322.4882l0 131.1496l56.614166 0" fill-rule="evenodd"/><path fill="#434343" stroke="#434343" stroke-width="3.0" stroke-linecap="butt" d="m195.59055 458.593l13.614304 -4.9552l-13.614304 -4.9552z" fill-rule="evenodd"/><path fill="#000000" fill-opacity="0.0" d="m342.9685 86.48819l74.04724 0l0 45.259842l-74.04724 0z" fill-rule="evenodd"/><path fill="#434343" d="m353.35913 115.968185l0 -11.0625l1.6875 0l0 1.671875q0.640625 -1.171875 1.1875 -1.546875q0.546875 -0.375 1.203125 -0.375q0.953125 0 1.921875 0.609375l-0.640625 1.734375q-0.6875 -0.40625 -1.375 -0.40625q-0.609375 0 -1.109375 0.375q-0.484375 0.359375 -0.6875 1.015625q-0.3125 1.0 -0.3125 2.1875l0 5.796875l-1.875 0zm6.774292 0.921875l1.828125 0.265625q0.109375 0.84375 0.625 1.234375q0.703125 0.515625 1.90625 0.515625q1.3125 0 2.015625 -0.53125q0.703125 -0.515625 0.953125 -1.453125q0.15625 -0.5625 0.140625 -2.40625q-1.234375 1.453125 -3.0625 1.453125q-2.28125 0 -3.53125 -1.640625q-1.25 -1.65625 -1.25 -3.953125q0 -1.578125 0.5625 -2.921875q0.578125 -1.34375 1.671875 -2.0625q1.09375 -0.734375 2.5625 -0.734375q1.953125 0 3.21875 1.578125l0 -1.328125l1.734375 0l0 9.5625q0 2.578125 -0.53125 3.65625q-0.515625 1.078125 -1.65625 1.703125q-1.140625 0.625 -2.8125 0.625q-1.984375 0 -3.203125 -0.890625q-1.21875 -0.890625 -1.171875 -2.671875zm1.546875 -6.65625q0 2.1875 0.859375 3.1875q0.875 1.0 2.171875 1.0q1.296875 0 2.171875 -1.0q0.875 -1.0 0.875 -3.125q0 -2.03125 -0.90625 -3.0625q-0.890625 -1.03125 -2.171875 -1.03125q-1.25 0 -2.125 1.015625q-0.875 1.015625 -0.875 3.015625zm12.392944 5.734375l-1.75 0l0 -15.265625l1.875 0l0 5.4375q1.1875 -1.484375 3.03125 -1.484375q1.03125 0 1.9375 0.421875q0.90625 0.40625 1.5 1.15625q0.59375 0.734375 0.921875 1.796875q0.328125 1.046875 0.328125 2.234375q0 2.84375 -1.40625 4.40625q-1.40625 1.546875 -3.375 1.546875q-1.953125 0 -3.0625 -1.640625l0 1.390625zm-0.03125 -5.609375q0 1.984375 0.546875 2.875q0.890625 1.4375 2.390625 1.4375q1.234375 0 2.125 -1.0625q0.90625 -1.0625 0.90625 -3.1875q0 -2.15625 -0.859375 -3.1875q-0.859375 -1.03125 -2.078125 -1.03125q-1.234375 0 -2.140625 1.0625q-0.890625 1.0625 -0.890625 3.09375z" fill-rule="nonzero"/><path fill="#000000" fill-opacity="0.0" d="m473.35434 232.91208l74.04721 0l0 45.259827l-74.04721 0z" fill-rule="evenodd"/><path fill="#434343" d="m483.7606 262.39206l0 -11.062485l1.671875 0l0 1.546875q0.53125 -0.8125 1.390625 -1.296875q0.859375 -0.5 1.96875 -0.5q1.234375 0 2.015625 0.515625q0.78125 0.5 1.109375 1.421875q1.3125 -1.9375 3.40625 -1.9375q1.65625 0 2.53125 0.921875q0.890625 0.90625 0.890625 2.796875l0 7.5937347l-1.859375 0l0 -6.9687347q0 -1.125 -0.1875 -1.609375q-0.1875 -0.5 -0.671875 -0.796875q-0.46875 -0.3125 -1.109375 -0.3125q-1.171875 0 -1.9375 0.78125q-0.765625 0.765625 -0.765625 2.484375l0 6.4218597l-1.875 0l0 -7.1874847q0 -1.25 -0.46875 -1.875q-0.453125 -0.625 -1.5 -0.625q-0.78125 0 -1.453125 0.421875q-0.671875 0.40625 -0.984375 1.21875q-0.296875 0.796875 -0.296875 2.3124847l0 5.734375l-1.875 0zm24.98523 -1.359375q-1.046875 0.875 -2.015625 1.25q-0.953125 0.359375 -2.0625 0.359375q-1.8125 0 -2.796875 -0.890625q-0.984375 -0.890625 -0.984375 -2.28125q0 -0.8125 0.375 -1.484375q0.375 -0.671875 0.96875 -1.078125q0.59375 -0.40625 1.34375 -0.609375q0.5625 -0.140625 1.671875 -0.28125q2.265625 -0.26560974 3.34375 -0.64060974q0.015625 -0.390625 0.015625 -0.5q0 -1.140625 -0.53125 -1.609375q-0.71875 -0.640625 -2.140625 -0.640625q-1.328125 0 -1.953125 0.46875q-0.625 0.46875 -0.9375 1.640625l-1.828125 -0.25q0.25 -1.171875 0.8125 -1.890625q0.578125 -0.734375 1.65625 -1.125q1.09375 -0.390625 2.515625 -0.390625q1.421875 0 2.296875 0.34375q0.890625 0.328125 1.3125 0.828125q0.421875 0.5 0.578125 1.28125q0.09375 0.46875 0.09375 1.71875l0 2.4999847q0 2.625 0.125 3.3125q0.125 0.6875 0.46875 1.328125l-1.953125 0q-0.296875 -0.578125 -0.375 -1.359375zm-0.15625 -4.1875q-1.015625 0.40625 -3.0625 0.703125q-1.15625 0.171875 -1.640625 0.375q-0.46875 0.203125 -0.734375 0.609375q-0.265625 0.40625 -0.265625 0.890625q0 0.75 0.5625 1.25q0.578125 0.5 1.671875 0.5q1.078125 0 1.921875 -0.46875q0.84375 -0.484375 1.25 -1.296875q0.296875 -0.640625 0.296875 -1.875l0 -0.6875zm4.049225 2.25l1.859375 -0.296875q0.15625 1.109375 0.859375 1.703125q0.71875 0.59375 2.0 0.59375q1.296875 0 1.921875 -0.515625q0.625 -0.53125 0.625 -1.234375q0 -0.640625 -0.5625 -1.0q-0.375 -0.25 -1.90625 -0.640625q-2.0625 -0.515625 -2.859375 -0.890625q-0.796875 -0.390625 -1.21875 -1.0624847q-0.40625 -0.671875 -0.40625 -1.484375q0 -0.734375 0.328125 -1.359375q0.34375 -0.640625 0.9375 -1.0625q0.4375 -0.3125 1.1875 -0.53125q0.75 -0.234375 1.625 -0.234375q1.296875 0 2.28125 0.375q0.984375 0.375 1.453125 1.015625q0.46875 0.640625 0.640625 1.71875l-1.828125 0.25q-0.125 -0.859375 -0.734375 -1.328125q-0.59375 -0.484375 -1.6875 -0.484375q-1.28125 0 -1.84375 0.421875q-0.546875 0.421875 -0.546875 1.0q0 0.359375 0.234375 0.65625q0.21875 0.296875 0.71875 0.5q0.28125 0.109375 1.65625 0.484375q1.984375 0.53123474 2.765625 0.87498474q0.796875 0.328125 1.234375 0.984375q0.453125 0.640625 0.453125 1.59375q0 0.9375 -0.546875 1.765625q-0.546875 0.828125 -1.578125 1.28125q-1.03125 0.453125 -2.328125 0.453125q-2.15625 0 -3.296875 -0.890625q-1.125 -0.90625 -1.4375 -2.65625zm11.4296875 3.296875l0 -15.26561l1.875 0l0 8.703125l4.4375 -4.5l2.421875 0l-4.234375 4.109375l4.65625 6.9531097l-2.3125 0l-3.65625 -5.65625l-1.3125 1.265625l0 4.390625l-1.875 0z" fill-rule="nonzero"/><path fill="#000000" fill-opacity="0.0" d="m473.35434 380.15747l101.25986 0l0 45.259857l-101.25986 0z" fill-rule="evenodd"/><path fill="#434343" d="m483.0106 406.3406l1.859375 -0.296875q0.15625 1.109375 0.859375 1.703125q0.71875 0.59375 2.0 0.59375q1.296875 0 1.921875 -0.515625q0.625 -0.53125 0.625 -1.234375q0 -0.640625 -0.5625 -1.0q-0.375 -0.25 -1.90625 -0.640625q-2.0625 -0.515625 -2.859375 -0.890625q-0.796875 -0.390625 -1.21875 -1.0625q-0.40625 -0.671875 -0.40625 -1.484375q0 -0.734375 0.328125 -1.359375q0.34375 -0.640625 0.9375 -1.0625q0.4375 -0.3125 1.1875 -0.53125q0.75 -0.234375 1.625 -0.234375q1.296875 0 2.28125 0.375q0.984375 0.375 1.453125 1.015625q0.46875 0.640625 0.640625 1.71875l-1.828125 0.25q-0.125 -0.859375 -0.734375 -1.328125q-0.59375 -0.484375 -1.6875 -0.484375q-1.28125 0 -1.84375 0.421875q-0.546875 0.421875 -0.546875 1.0q0 0.359375 0.234375 0.65625q0.21875 0.296875 0.71875 0.5q0.28125 0.109375 1.65625 0.484375q1.984375 0.53125 2.765625 0.875q0.796875 0.328125 1.234375 0.984375q0.453125 0.640625 0.453125 1.59375q0 0.9375 -0.546875 1.765625q-0.546875 0.828125 -1.578125 1.28125q-1.03125 0.453125 -2.328125 0.453125q-2.15625 0 -3.296875 -0.890625q-1.125 -0.90625 -1.4375 -2.65625zm15.5078125 1.625l0.265625 1.65625q-0.78125 0.15625 -1.40625 0.15625q-1.03125 0 -1.59375 -0.3125q-0.5625 -0.328125 -0.796875 -0.84375q-0.21875 -0.53125 -0.21875 -2.21875l0 -6.375l-1.375 0l0 -1.453125l1.375 0l0 -2.734375l1.859375 -1.125l0 3.859375l1.890625 0l0 1.453125l-1.890625 0l0 6.46875q0 0.8125 0.09375 1.046875q0.109375 0.21875 0.328125 0.359375q0.234375 0.125 0.640625 0.125q0.3125 0 0.828125 -0.0625zm9.410004 -1.890625l1.921875 0.234375q-0.453125 1.703125 -1.6875 2.640625q-1.234375 0.9375 -3.171875 0.9375q-2.421875 0 -3.84375 -1.484375q-1.421875 -1.5 -1.421875 -4.203125q0 -2.796875 1.4375 -4.328125q1.4375 -1.546875 3.734375 -1.546875q2.21875 0 3.609375 1.515625q1.40625 1.5 1.40625 4.25q0 0.15625 0 0.5l-8.25 0q0.109375 1.8125 1.03125 2.78125q0.921875 0.96875 2.3125 0.96875q1.03125 0 1.75 -0.53125q0.734375 -0.546875 1.171875 -1.734375zm-6.15625 -3.03125l6.171875 0q-0.125 -1.390625 -0.703125 -2.09375q-0.90625 -1.078125 -2.328125 -1.078125q-1.296875 0 -2.171875 0.859375q-0.875 0.859375 -0.96875 2.3125zm18.017944 3.03125l1.921875 0.234375q-0.453125 1.703125 -1.6875 2.640625q-1.234375 0.9375 -3.171875 0.9375q-2.421875 0 -3.84375 -1.484375q-1.421875 -1.5 -1.421875 -4.203125q0 -2.796875 1.4375 -4.328125q1.4375 -1.546875 3.734375 -1.546875q2.21875 0 3.609375 1.515625q1.40625 1.5 1.40625 4.25q0 0.15625 0 0.5l-8.25 0q0.109375 1.8125 1.03125 2.78125q0.921875 0.96875 2.3125 0.96875q1.03125 0 1.75 -0.53125q0.734375 -0.546875 1.171875 -1.734375zm-6.15625 -3.03125l6.171875 0q-0.125 -1.390625 -0.703125 -2.09375q-0.90625 -1.078125 -2.328125 -1.078125q-1.296875 0 -2.171875 0.859375q-0.875 0.859375 -0.96875 2.3125zm10.424194 6.59375l0 -11.0625l1.6875 0l0 1.671875q0.640625 -1.171875 1.1875 -1.546875q0.546875 -0.375 1.203125 -0.375q0.953125 0 1.921875 0.609375l-0.640625 1.734375q-0.6875 -0.40625 -1.375 -0.40625q-0.609375 0 -1.109375 0.375q-0.484375 0.359375 -0.6875 1.015625q-0.3125 1.0 -0.3125 2.1875l0 5.796875l-1.875 0zm7.133667 -13.109375l0 -2.15625l1.875 0l0 2.15625l-1.875 0zm0 13.109375l0 -11.0625l1.875 0l0 11.0625l-1.875 0zm4.7228394 0l0 -11.0625l1.6875 0l0 1.578125q1.21875 -1.828125 3.515625 -1.828125q1.0 0 1.84375 0.359375q0.84375 0.359375 1.25 0.953125q0.421875 0.578125 0.59375 1.375q0.09375 0.515625 0.09375 1.828125l0 6.796875l-1.875 0l0 -6.734375q0 -1.140625 -0.21875 -1.703125q-0.21875 -0.578125 -0.78125 -0.90625q-0.546875 -0.34375 -1.296875 -0.34375q-1.203125 0 -2.078125 0.765625q-0.859375 0.75 -0.859375 2.875l0 6.046875l-1.875 0zm11.517944 0.921875l1.828125 0.265625q0.109375 0.84375 0.625 1.234375q0.703125 0.515625 1.90625 0.515625q1.3125 0 2.015625 -0.53125q0.703125 -0.515625 0.953125 -1.453125q0.15625 -0.5625 0.140625 -2.40625q-1.234375 1.453125 -3.0625 1.453125q-2.28125 0 -3.53125 -1.640625q-1.25 -1.65625 -1.25 -3.953125q0 -1.578125 0.5625 -2.921875q0.578125 -1.34375 1.671875 -2.0625q1.09375 -0.734375 2.5625 -0.734375q1.953125 0 3.21875 1.578125l0 -1.328125l1.734375 0l0 9.5625q0 2.578125 -0.53125 3.65625q-0.515625 1.078125 -1.65625 1.703125q-1.140625 0.625 -2.8125 0.625q-1.984375 0 -3.203125 -0.890625q-1.21875 -0.890625 -1.171875 -2.671875zm1.546875 -6.65625q0 2.1875 0.859375 3.1875q0.875 1.0 2.171875 1.0q1.296875 0 2.171875 -1.0q0.875 -1.0 0.875 -3.125q0 -2.03125 -0.90625 -3.0625q-0.890625 -1.03125 -2.171875 -1.03125q-1.25 0 -2.125 1.015625q-0.875 1.015625 -0.875 3.015625z" fill-rule="nonzero"/><path fill="#000000" fill-opacity="0.0" d="m290.54855 500.18896l154.20474 0l0 45.259827l-154.20474 0z" fill-rule="evenodd"/><path fill="#434343" d="m300.2048 526.37213l1.859375 -0.296875q0.15625 1.109375 0.859375 1.703125q0.71875 0.59375 2.0 0.59375q1.296875 0 1.921875 -0.515625q0.625 -0.53125 0.625 -1.234375q0 -0.640625 -0.5625 -1.0q-0.375 -0.25 -1.90625 -0.640625q-2.0625 -0.515625 -2.859375 -0.890625q-0.796875 -0.390625 -1.21875 -1.0625q-0.40625 -0.671875 -0.40625 -1.484375q0 -0.734375 0.328125 -1.359375q0.34375 -0.640625 0.9375 -1.0625q0.4375 -0.3125 1.1875 -0.53125q0.75 -0.234375 1.625 -0.234375q1.296875 0 2.28125 0.375q0.984375 0.375 1.453125 1.015625q0.46875 0.640625 0.640625 1.71875l-1.828125 0.25q-0.125 -0.859375 -0.734375 -1.328125q-0.59375 -0.484375 -1.6875 -0.484375q-1.28125 0 -1.84375 0.421875q-0.546875 0.421875 -0.546875 1.0q0 0.359375 0.234375 0.65625q0.21875 0.296875 0.71875 0.5q0.28125 0.109375 1.65625 0.484375q1.984375 0.53125 2.765625 0.875q0.796875 0.328125 1.234375 0.984375q0.453125 0.640625 0.453125 1.59375q0 0.9375 -0.546875 1.765625q-0.546875 0.828125 -1.578125 1.28125q-1.03125 0.453125 -2.328125 0.453125q-2.15625 0 -3.296875 -0.890625q-1.125 -0.90625 -1.4375 -2.65625zm15.5078125 1.625l0.265625 1.65625q-0.78125 0.15625 -1.40625 0.15625q-1.03125 0 -1.59375 -0.3125q-0.5625 -0.328125 -0.796875 -0.84375q-0.21875 -0.53125 -0.21875 -2.21875l0 -6.375l-1.375 0l0 -1.453125l1.375 0l0 -2.734375l1.859375 -1.125l0 3.859375l1.890625 0l0 1.453125l-1.890625 0l0 6.46875q0 0.8125 0.09375 1.046875q0.109375 0.21875 0.328125 0.359375q0.234375 0.125 0.640625 0.125q0.3125 0 0.828125 -0.0625zm9.410034 -1.890625l1.921875 0.234375q-0.453125 1.703125 -1.6875 2.640625q-1.234375 0.9375 -3.171875 0.9375q-2.421875 0 -3.84375 -1.484375q-1.421875 -1.5 -1.421875 -4.203125q0 -2.796875 1.4375 -4.328125q1.4375 -1.546875 3.734375 -1.546875q2.21875 0 3.609375 1.515625q1.40625 1.5 1.40625 4.25q0 0.15625 0 0.5l-8.25 0q0.109375 1.8125 1.03125 2.78125q0.921875 0.96875 2.3125 0.96875q1.03125 0 1.75 -0.53125q0.734375 -0.546875 1.171875 -1.734375zm-6.15625 -3.03125l6.171875 0q-0.125 -1.390625 -0.703125 -2.09375q-0.90625 -1.078125 -2.328125 -1.078125q-1.296875 0 -2.171875 0.859375q-0.875 0.859375 -0.96875 2.3125zm18.017944 3.03125l1.921875 0.234375q-0.453125 1.703125 -1.6875 2.640625q-1.234375 0.9375 -3.171875 0.9375q-2.421875 0 -3.84375 -1.484375q-1.421875 -1.5 -1.421875 -4.203125q0 -2.796875 1.4375 -4.328125q1.4375 -1.546875 3.734375 -1.546875q2.21875 0 3.609375 1.515625q1.40625 1.5 1.40625 4.25q0 0.15625 0 0.5l-8.25 0q0.109375 1.8125 1.03125 2.78125q0.921875 0.96875 2.3125 0.96875q1.03125 0 1.75 -0.53125q0.734375 -0.546875 1.171875 -1.734375zm-6.15625 -3.03125l6.171875 0q-0.125 -1.390625 -0.703125 -2.09375q-0.90625 -1.078125 -2.328125 -1.078125q-1.296875 0 -2.171875 0.859375q-0.875 0.859375 -0.96875 2.3125zm10.424194 6.59375l0 -11.0625l1.6875 0l0 1.671875q0.640625 -1.171875 1.1875 -1.546875q0.546875 -0.375 1.203125 -0.375q0.953125 0 1.921875 0.609375l-0.640625 1.734375q-0.6875 -0.40625 -1.375 -0.40625q-0.609375 0 -1.109375 0.375q-0.484375 0.359375 -0.6875 1.015625q-0.3125 1.0 -0.3125 2.1875l0 5.796875l-1.875 0zm7.133667 -13.109375l0 -2.15625l1.875 0l0 2.15625l-1.875 0zm0 13.109375l0 -11.0625l1.875 0l0 11.0625l-1.875 0zm4.722809 0l0 -11.0625l1.6875 0l0 1.578125q1.21875 -1.828125 3.515625 -1.828125q1.0 0 1.84375 0.359375q0.84375 0.359375 1.25 0.953125q0.421875 0.578125 0.59375 1.375q0.09375 0.515625 0.09375 1.828125l0 6.796875l-1.875 0l0 -6.734375q0 -1.140625 -0.21875 -1.703125q-0.21875 -0.578125 -0.78125 -0.90625q-0.546875 -0.34375 -1.296875 -0.34375q-1.203125 0 -2.078125 0.765625q-0.859375 0.75 -0.859375 2.875l0 6.046875l-1.875 0zm11.517944 0.921875l1.828125 0.265625q0.109375 0.84375 0.625 1.234375q0.703125 0.515625 1.90625 0.515625q1.3125 0 2.015625 -0.53125q0.703125 -0.515625 0.953125 -1.453125q0.15625 -0.5625 0.140625 -2.40625q-1.234375 1.453125 -3.0625 1.453125q-2.28125 0 -3.53125 -1.640625q-1.25 -1.65625 -1.25 -3.953125q0 -1.578125 0.5625 -2.921875q0.578125 -1.34375 1.671875 -2.0625q1.09375 -0.734375 2.5625 -0.734375q1.953125 0 3.21875 1.578125l0 -1.328125l1.734375 0l0 9.5625q0 2.578125 -0.53125 3.65625q-0.515625 1.078125 -1.65625 1.703125q-1.140625 0.625 -2.8125 0.625q-1.984375 0 -3.203125 -0.890625q-1.21875 -0.890625 -1.171875 -2.671875zm1.546875 -6.65625q0 2.1875 0.859375 3.1875q0.875 1.0 2.171875 1.0q1.296875 0 2.171875 -1.0q0.875 -1.0 0.875 -3.125q0 -2.03125 -0.90625 -3.0625q-0.890625 -1.03125 -2.171875 -1.03125q-1.25 0 -2.125 1.015625q-0.875 1.015625 -0.875 3.015625zm8.924194 9.96875l0 -1.34375l12.421875 0l0 1.34375l-12.421875 0zm12.846069 -7.53125l1.859375 -0.296875q0.15625 1.109375 0.859375 1.703125q0.71875 0.59375 2.0 0.59375q1.296875 0 1.921875 -0.515625q0.625 -0.53125 0.625 -1.234375q0 -0.640625 -0.5625 -1.0q-0.375 -0.25 -1.90625 -0.640625q-2.0625 -0.515625 -2.859375 -0.890625q-0.796875 -0.390625 -1.21875 -1.0625q-0.40625 -0.671875 -0.40625 -1.484375q0 -0.734375 0.328125 -1.359375q0.34375 -0.640625 0.9375 -1.0625q0.4375 -0.3125 1.1875 -0.53125q0.75 -0.234375 1.625 -0.234375q1.296875 0 2.28125 0.375q0.984375 0.375 1.453125 1.015625q0.46875 0.640625 0.640625 1.71875l-1.828125 0.25q-0.125 -0.859375 -0.734375 -1.328125q-0.59375 -0.484375 -1.6875 -0.484375q-1.28125 0 -1.84375 0.421875q-0.546875 0.421875 -0.546875 1.0q0 0.359375 0.234375 0.65625q0.21875 0.296875 0.71875 0.5q0.28125 0.109375 1.65625 0.484375q1.984375 0.53125 2.765625 0.875q0.796875 0.328125 1.234375 0.984375q0.453125 0.640625 0.453125 1.59375q0 0.9375 -0.546875 1.765625q-0.546875 0.828125 -1.578125 1.28125q-1.03125 0.453125 -2.328125 0.453125q-2.15625 0 -3.296875 -0.890625q-1.125 -0.90625 -1.4375 -2.65625zm18.632812 1.9375q-1.046875 0.875 -2.015625 1.25q-0.953125 0.359375 -2.0625 0.359375q-1.8125 0 -2.796875 -0.890625q-0.984375 -0.890625 -0.984375 -2.28125q0 -0.8125 0.375 -1.484375q0.375 -0.671875 0.96875 -1.078125q0.59375 -0.40625 1.34375 -0.609375q0.5625 -0.140625 1.671875 -0.28125q2.265625 -0.265625 3.34375 -0.640625q0.015625 -0.390625 0.015625 -0.5q0 -1.140625 -0.53125 -1.609375q-0.71875 -0.640625 -2.140625 -0.640625q-1.328125 0 -1.953125 0.46875q-0.625 0.46875 -0.9375 1.640625l-1.828125 -0.25q0.25 -1.171875 0.8125 -1.890625q0.578125 -0.734375 1.65625 -1.125q1.09375 -0.390625 2.515625 -0.390625q1.421875 0 2.296875 0.34375q0.890625 0.328125 1.3125 0.828125q0.421875 0.5 0.578125 1.28125q0.09375 0.46875 0.09375 1.71875l0 2.5q0 2.625 0.125 3.3125q0.125 0.6875 0.46875 1.328125l-1.953125 0q-0.296875 -0.578125 -0.375 -1.359375zm-0.15625 -4.1875q-1.015625 0.40625 -3.0625 0.703125q-1.15625 0.171875 -1.640625 0.375q-0.46875 0.203125 -0.734375 0.609375q-0.265625 0.40625 -0.265625 0.890625q0 0.75 0.5625 1.25q0.578125 0.5 1.671875 0.5q1.078125 0 1.921875 -0.46875q0.84375 -0.484375 1.25 -1.296875q0.296875 -0.640625 0.296875 -1.875l0 -0.6875zm5.2523193 5.546875l0 -9.609375l-1.65625 0l0 -1.453125l1.65625 0l0 -1.171875q0 -1.109375 0.1875 -1.65625q0.28125 -0.734375 0.953125 -1.1875q0.6875 -0.453125 1.921875 -0.453125q0.78125 0 1.75 0.1875l-0.28125 1.640625q-0.59375 -0.109375 -1.109375 -0.109375q-0.859375 0 -1.21875 0.375q-0.34375 0.359375 -0.34375 1.359375l0 1.015625l2.15625 0l0 1.453125l-2.15625 0l0 9.609375l-1.859375 0zm13.050659 -3.5625l1.921875 0.234375q-0.453125 1.703125 -1.6875 2.640625q-1.234375 0.9375 -3.171875 0.9375q-2.421875 0 -3.84375 -1.484375q-1.421875 -1.5 -1.421875 -4.203125q0 -2.796875 1.4375 -4.328125q1.4375 -1.546875 3.734375 -1.546875q2.21875 0 3.609375 1.515625q1.40625 1.5 1.40625 4.25q0 0.15625 0 0.5l-8.25 0q0.109375 1.8125 1.03125 2.78125q0.921875 0.96875 2.3125 0.96875q1.03125 0 1.75 -0.53125q0.734375 -0.546875 1.171875 -1.734375zm-6.15625 -3.03125l6.171875 0q-0.125 -1.390625 -0.703125 -2.09375q-0.90625 -1.078125 -2.328125 -1.078125q-1.296875 0 -2.171875 0.859375q-0.875 0.859375 -0.96875 2.3125z" fill-rule="nonzero"/><path fill="#000000" fill-opacity="0.0" d="m77.272964 365.43307l78.110245 0l0 45.259827l-78.110245 0z" fill-rule="evenodd"/><path fill="#434343" d="m94.85109 394.91306l0 -1.390625q-1.046875 1.640625 -3.09375 1.640625q-1.3125 0 -2.421875 -0.71875q-1.109375 -0.734375 -1.71875 -2.046875q-0.609375 -1.3125 -0.609375 -3.0q0 -1.65625 0.546875 -3.0q0.546875 -1.359375 1.65625 -2.078125q1.109375 -0.71875 2.46875 -0.71875q1.0 0 1.78125 0.421875q0.78125 0.421875 1.265625 1.09375l0 -5.46875l1.875 0l0 15.265625l-1.75 0zm-5.921875 -5.515625q0 2.125 0.890625 3.171875q0.90625 1.046875 2.125 1.046875q1.21875 0 2.078125 -1.0q0.859375 -1.0 0.859375 -3.0625q0 -2.28125 -0.875 -3.34375q-0.875 -1.0625 -2.15625 -1.0625q-1.25 0 -2.09375 1.03125q-0.828125 1.015625 -0.828125 3.21875zm10.611694 5.515625l0 -11.0625l1.671875 0l0 1.546875q0.53125 -0.8125 1.390625 -1.296875q0.859375 -0.5 1.96875 -0.5q1.234375 0 2.015625 0.515625q0.78125 0.5 1.109375 1.421875q1.3125 -1.9375 3.40625 -1.9375q1.65625 0 2.53125 0.921875q0.890625 0.90625 0.890625 2.796875l0 7.59375l-1.859375 0l0 -6.96875q0 -1.125 -0.1875 -1.609375q-0.1875 -0.5 -0.671875 -0.796875q-0.46875 -0.3125 -1.109375 -0.3125q-1.171875 0 -1.9375 0.78125q-0.765625 0.765625 -0.765625 2.484375l0 6.421875l-1.875 0l0 -7.1875q0 -1.25 -0.46875 -1.875q-0.453125 -0.625 -1.5 -0.625q-0.78125 0 -1.453125 0.421875q-0.671875 0.40625 -0.984375 1.21875q-0.296875 0.796875 -0.296875 2.3125l0 5.734375l-1.875 0zm17.016495 -3.296875l1.859375 -0.296875q0.15625 1.109375 0.859375 1.703125q0.71875 0.59375 2.0 0.59375q1.296875 0 1.921875 -0.515625q0.625 -0.53125 0.625 -1.234375q0 -0.640625 -0.5625 -1.0q-0.375 -0.25 -1.90625 -0.640625q-2.0625 -0.515625 -2.859375 -0.890625q-0.796875 -0.390625 -1.21875 -1.0625q-0.40625 -0.671875 -0.40625 -1.484375q0 -0.734375 0.328125 -1.359375q0.34375 -0.640625 0.9375 -1.0625q0.4375 -0.3125 1.1875 -0.53125q0.75 -0.234375 1.625 -0.234375q1.296875 0 2.28125 0.375q0.984375 0.375 1.453125 1.015625q0.46875 0.640625 0.640625 1.71875l-1.828125 0.25q-0.125 -0.859375 -0.734375 -1.328125q-0.59375 -0.484375 -1.6875 -0.484375q-1.28125 0 -1.84375 0.421875q-0.546875 0.421875 -0.546875 1.0q0 0.359375 0.234375 0.65625q0.21875 0.296875 0.71875 0.5q0.28125 0.109375 1.65625 0.484375q1.984375 0.53125 2.765625 0.875q0.796875 0.328125 1.234375 0.984375q0.453125 0.640625 0.453125 1.59375q0 0.9375 -0.546875 1.765625q-0.546875 0.828125 -1.578125 1.28125q-1.03125 0.453125 -2.328125 0.453125q-2.15625 0 -3.296875 -0.890625q-1.125 -0.90625 -1.4375 -2.65625z" fill-rule="nonzero"/><path fill="#000000" fill-opacity="0.0" d="m55.82152 148.19685l74.04724 0l0 45.259842l-74.04724 0z" fill-rule="evenodd"/><path fill="#434343" d="m91.43357 177.67685l0 -11.0625l1.6875 0l0 1.671875q0.640625 -1.171875 1.1875 -1.546875q0.546875 -0.375 1.203125 -0.375q0.953125 0 1.921875 0.609375l-0.640625 1.734375q-0.6875 -0.40625 -1.375 -0.40625q-0.609375 0 -1.109375 0.375q-0.484375 0.359375 -0.6875 1.015625q-0.3125 1.0 -0.3125 2.1875l0 5.796875l-1.875 0zm6.7743073 0.921875l1.828125 0.265625q0.109375 0.84375 0.625 1.234375q0.703125 0.515625 1.90625 0.515625q1.3125 0 2.015625 -0.53125q0.703125 -0.515625 0.953125 -1.453125q0.15625 -0.5625 0.140625 -2.40625q-1.234375 1.453125 -3.0625 1.453125q-2.28125 0 -3.53125 -1.640625q-1.25 -1.65625 -1.25 -3.953125q0 -1.578125 0.5625 -2.921875q0.578125 -1.34375 1.671875 -2.0625q1.09375 -0.734375 2.5625 -0.734375q1.953125 0 3.21875 1.578125l0 -1.328125l1.734375 0l0 9.5625q0 2.578125 -0.53125 3.65625q-0.515625 1.078125 -1.65625 1.703125q-1.140625 0.625 -2.8125 0.625q-1.984375 0 -3.203125 -0.890625q-1.21875 -0.890625 -1.171875 -2.671875zm1.546875 -6.65625q0 2.1875 0.859375 3.1875q0.875 1.0 2.171875 1.0q1.296875 0 2.171875 -1.0q0.875 -1.0 0.875 -3.125q0 -2.03125 -0.90625 -3.0625q-0.890625 -1.03125 -2.171875 -1.03125q-1.25 0 -2.125 1.015625q-0.875 1.015625 -0.875 3.015625zm12.392944 5.734375l-1.75 0l0 -15.265625l1.875 0l0 5.4375q1.1875 -1.484375 3.03125 -1.484375q1.03125 0 1.9375 0.421875q0.90625 0.40625 1.5 1.15625q0.59375 0.734375 0.921875 1.796875q0.328125 1.046875 0.328125 2.234375q0 2.84375 -1.40625 4.40625q-1.40625 1.546875 -3.375 1.546875q-1.953125 0 -3.0625 -1.640625l0 1.390625zm-0.03125 -5.609375q0 1.984375 0.546875 2.875q0.890625 1.4375 2.390625 1.4375q1.234375 0 2.125 -1.0625q0.90625 -1.0625 0.90625 -3.1875q0 -2.15625 -0.859375 -3.1875q-0.859375 -1.03125 -2.078125 -1.03125q-1.234375 0 -2.140625 1.0625q-0.890625 1.0625 -0.890625 3.09375z" fill-rule="nonzero"/><path fill="#000000" fill-opacity="0.0" d="m289.60892 152.11285l74.04724 0l0 45.259842l-74.04724 0z" fill-rule="evenodd"/><path fill="#434343" d="m300.01517 181.59286l0 -11.0625l1.671875 0l0 1.546875q0.53125 -0.8125 1.390625 -1.296875q0.859375 -0.5 1.96875 -0.5q1.234375 0 2.015625 0.515625q0.78125 0.5 1.109375 1.421875q1.3125 -1.9375 3.40625 -1.9375q1.65625 0 2.53125 0.921875q0.890625 0.90625 0.890625 2.796875l0 7.59375l-1.859375 0l0 -6.96875q0 -1.125 -0.1875 -1.609375q-0.1875 -0.5 -0.671875 -0.796875q-0.46875 -0.3125 -1.109375 -0.3125q-1.171875 0 -1.9375 0.78125q-0.765625 0.765625 -0.765625 2.484375l0 6.421875l-1.875 0l0 -7.1875q0 -1.25 -0.46875 -1.875q-0.453125 -0.625 -1.5 -0.625q-0.78125 0 -1.453125 0.421875q-0.671875 0.40625 -0.984375 1.21875q-0.296875 0.796875 -0.296875 2.3125l0 5.734375l-1.875 0zm24.98526 -1.359375q-1.046875 0.875 -2.015625 1.25q-0.953125 0.359375 -2.0625 0.359375q-1.8125 0 -2.796875 -0.890625q-0.984375 -0.890625 -0.984375 -2.28125q0 -0.8125 0.375 -1.484375q0.375 -0.671875 0.96875 -1.078125q0.59375 -0.40625 1.34375 -0.609375q0.5625 -0.140625 1.671875 -0.28125q2.265625 -0.265625 3.34375 -0.640625q0.015625 -0.390625 0.015625 -0.5q0 -1.140625 -0.53125 -1.609375q-0.71875 -0.640625 -2.140625 -0.640625q-1.328125 0 -1.953125 0.46875q-0.625 0.46875 -0.9375 1.640625l-1.828125 -0.25q0.25 -1.171875 0.8125 -1.890625q0.578125 -0.734375 1.65625 -1.125q1.09375 -0.390625 2.515625 -0.390625q1.421875 0 2.296875 0.34375q0.890625 0.328125 1.3125 0.828125q0.421875 0.5 0.578125 1.28125q0.09375 0.46875 0.09375 1.71875l0 2.5q0 2.625 0.125 3.3125q0.125 0.6875 0.46875 1.328125l-1.953125 0q-0.296875 -0.578125 -0.375 -1.359375zm-0.15625 -4.1875q-1.015625 0.40625 -3.0625 0.703125q-1.15625 0.171875 -1.640625 0.375q-0.46875 0.203125 -0.734375 0.609375q-0.265625 0.40625 -0.265625 0.890625q0 0.75 0.5625 1.25q0.578125 0.5 1.671875 0.5q1.078125 0 1.921875 -0.46875q0.84375 -0.484375 1.25 -1.296875q0.296875 -0.640625 0.296875 -1.875l0 -0.6875zm4.0491943 2.25l1.859375 -0.296875q0.15625 1.109375 0.859375 1.703125q0.71875 0.59375 2.0 0.59375q1.296875 0 1.921875 -0.515625q0.625 -0.53125 0.625 -1.234375q0 -0.640625 -0.5625 -1.0q-0.375 -0.25 -1.90625 -0.640625q-2.0625 -0.515625 -2.859375 -0.890625q-0.796875 -0.390625 -1.21875 -1.0625q-0.40625 -0.671875 -0.40625 -1.484375q0 -0.734375 0.328125 -1.359375q0.34375 -0.640625 0.9375 -1.0625q0.4375 -0.3125 1.1875 -0.53125q0.75 -0.234375 1.625 -0.234375q1.296875 0 2.28125 0.375q0.984375 0.375 1.453125 1.015625q0.46875 0.640625 0.640625 1.71875l-1.828125 0.25q-0.125 -0.859375 -0.734375 -1.328125q-0.59375 -0.484375 -1.6875 -0.484375q-1.28125 0 -1.84375 0.421875q-0.546875 0.421875 -0.546875 1.0q0 0.359375 0.234375 0.65625q0.21875 0.296875 0.71875 0.5q0.28125 0.109375 1.65625 0.484375q1.984375 0.53125 2.765625 0.875q0.796875 0.328125 1.234375 0.984375q0.453125 0.640625 0.453125 1.59375q0 0.9375 -0.546875 1.765625q-0.546875 0.828125 -1.578125 1.28125q-1.03125 0.453125 -2.328125 0.453125q-2.15625 0 -3.296875 -0.890625q-1.125 -0.90625 -1.4375 -2.65625zm11.4296875 3.296875l0 -15.265625l1.875 0l0 8.703125l4.4375 -4.5l2.421875 0l-4.234375 4.109375l4.65625 6.953125l-2.3125 0l-3.65625 -5.65625l-1.3125 1.265625l0 4.390625l-1.875 0z" fill-rule="nonzero"/><path fill="#000000" fill-opacity="0.0" d="m290.54855 238.41339l101.25986 0l0 45.259827l-101.25986 0z" fill-rule="evenodd"/><path fill="#434343" d="m300.2048 264.5965l1.859375 -0.296875q0.15625 1.109375 0.859375 1.703125q0.71875 0.59375 2.0 0.59375q1.296875 0 1.921875 -0.515625q0.625 -0.53125 0.625 -1.234375q0 -0.640625 -0.5625 -1.0q-0.375 -0.25 -1.90625 -0.640625q-2.0625 -0.515625 -2.859375 -0.890625q-0.796875 -0.390625 -1.21875 -1.0625q-0.40625 -0.671875 -0.40625 -1.484375q0 -0.734375 0.328125 -1.359375q0.34375 -0.640625 0.9375 -1.0625q0.4375 -0.3125 1.1875 -0.53125q0.75 -0.234375 1.625 -0.234375q1.296875 0 2.28125 0.375q0.984375 0.375 1.453125 1.015625q0.46875 0.640625 0.640625 1.71875l-1.828125 0.25q-0.125 -0.859375 -0.734375 -1.328125q-0.59375 -0.484375 -1.6875 -0.484375q-1.28125 0 -1.84375 0.421875q-0.546875 0.421875 -0.546875 1.0q0 0.359375 0.234375 0.65625q0.21875 0.296875 0.71875 0.5q0.28125 0.109375 1.65625 0.484375q1.984375 0.53125 2.765625 0.875q0.796875 0.328125 1.234375 0.984375q0.453125 0.640625 0.453125 1.59375q0 0.9375 -0.546875 1.765625q-0.546875 0.828125 -1.578125 1.28125q-1.03125 0.453125 -2.328125 0.453125q-2.15625 0 -3.296875 -0.890625q-1.125 -0.90625 -1.4375 -2.65625zm15.5078125 1.625l0.265625 1.65625q-0.78125 0.15625 -1.40625 0.15625q-1.03125 0 -1.59375 -0.3125q-0.5625 -0.328125 -0.796875 -0.84375q-0.21875 -0.53125 -0.21875 -2.21875l0 -6.375l-1.375 0l0 -1.453125l1.375 0l0 -2.7343597l1.859375 -1.125l0 3.8593597l1.890625 0l0 1.453125l-1.890625 0l0 6.46875q0 0.8125 0.09375 1.046875q0.109375 0.21875 0.328125 0.359375q0.234375 0.125 0.640625 0.125q0.3125 0 0.828125 -0.0625zm9.410034 -1.890625l1.921875 0.234375q-0.453125 1.703125 -1.6875 2.640625q-1.234375 0.9375 -3.171875 0.9375q-2.421875 0 -3.84375 -1.484375q-1.421875 -1.5 -1.421875 -4.203125q0 -2.796875 1.4375 -4.328125q1.4375 -1.546875 3.734375 -1.546875q2.21875 0 3.609375 1.515625q1.40625 1.5 1.40625 4.25q0 0.15625 0 0.5l-8.25 0q0.109375 1.8125 1.03125 2.78125q0.921875 0.96875 2.3125 0.96875q1.03125 0 1.75 -0.53125q0.734375 -0.546875 1.171875 -1.734375zm-6.15625 -3.03125l6.171875 0q-0.125 -1.390625 -0.703125 -2.09375q-0.90625 -1.078125 -2.328125 -1.078125q-1.296875 0 -2.171875 0.859375q-0.875 0.859375 -0.96875 2.3125zm18.017944 3.03125l1.921875 0.234375q-0.453125 1.703125 -1.6875 2.640625q-1.234375 0.9375 -3.171875 0.9375q-2.421875 0 -3.84375 -1.484375q-1.421875 -1.5 -1.421875 -4.203125q0 -2.796875 1.4375 -4.328125q1.4375 -1.546875 3.734375 -1.546875q2.21875 0 3.609375 1.515625q1.40625 1.5 1.40625 4.25q0 0.15625 0 0.5l-8.25 0q0.109375 1.8125 1.03125 2.78125q0.921875 0.96875 2.3125 0.96875q1.03125 0 1.75 -0.53125q0.734375 -0.546875 1.171875 -1.734375zm-6.15625 -3.03125l6.171875 0q-0.125 -1.390625 -0.703125 -2.09375q-0.90625 -1.078125 -2.328125 -1.078125q-1.296875 0 -2.171875 0.859375q-0.875 0.859375 -0.96875 2.3125zm10.424194 6.59375l0 -11.0625l1.6875 0l0 1.671875q0.640625 -1.171875 1.1875 -1.546875q0.546875 -0.375 1.203125 -0.375q0.953125 0 1.921875 0.609375l-0.640625 1.734375q-0.6875 -0.40625 -1.375 -0.40625q-0.609375 0 -1.109375 0.375q-0.484375 0.359375 -0.6875 1.015625q-0.3125 1.0 -0.3125 2.1875l0 5.796875l-1.875 0zm7.133667 -13.10936l0 -2.15625l1.875 0l0 2.15625l-1.875 0zm0 13.10936l0 -11.0625l1.875 0l0 11.0625l-1.875 0zm4.722809 0l0 -11.0625l1.6875 0l0 1.578125q1.21875 -1.828125 3.515625 -1.828125q1.0 0 1.84375 0.359375q0.84375 0.359375 1.25 0.953125q0.421875 0.578125 0.59375 1.375q0.09375 0.515625 0.09375 1.828125l0 6.796875l-1.875 0l0 -6.734375q0 -1.140625 -0.21875 -1.703125q-0.21875 -0.578125 -0.78125 -0.90625q-0.546875 -0.34375 -1.296875 -0.34375q-1.203125 0 -2.078125 0.765625q-0.859375 0.75 -0.859375 2.875l0 6.046875l-1.875 0zm11.517944 0.921875l1.828125 0.265625q0.109375 0.84375 0.625 1.234375q0.703125 0.515625 1.90625 0.515625q1.3125 0 2.015625 -0.53125q0.703125 -0.515625 0.953125 -1.453125q0.15625 -0.5625 0.140625 -2.40625q-1.234375 1.453125 -3.0625 1.453125q-2.28125 0 -3.53125 -1.640625q-1.25 -1.65625 -1.25 -3.953125q0 -1.578125 0.5625 -2.921875q0.578125 -1.34375 1.671875 -2.0625q1.09375 -0.734375 2.5625 -0.734375q1.953125 0 3.21875 1.578125l0 -1.328125l1.734375 0l0 9.5625q0 2.578125 -0.53125 3.65625q-0.515625 1.078125 -1.65625 1.703125q-1.140625 0.625 -2.8125 0.625q-1.984375 0 -3.203125 -0.890625q-1.21875 -0.890625 -1.171875 -2.671875zm1.546875 -6.65625q0 2.1875 0.859375 3.1875q0.875 1.0 2.171875 1.0q1.296875 0 2.171875 -1.0q0.875 -1.0 0.875 -3.125q0 -2.03125 -0.90625 -3.0625q-0.890625 -1.03125 -2.171875 -1.03125q-1.25 0 -2.125 1.015625q-0.875 1.015625 -0.875 3.015625z" fill-rule="nonzero"/></g></svg>